<svg width="128" height="128" viewBox="0 0 128 128" fill="none" xmlns="http://www.w3.org/2000/svg">
<g clip-path="url(#clip0_2_15)">
<path d="M11.015 82.424C10.6737 82.424 10.3323 82.2533 9.991 81.912C9.64967 81.5707 9.52167 81.3573 9.607 81.272C9.69233 80.8453 9.82033 80.4187 9.991 79.992C10.1617 79.5653 10.3323 79.1813 10.503 78.84C11.4417 76.8773 12.7217 75.0427 14.343 73.336C16.0497 71.544 17.8417 69.8373 19.719 68.216C19.0363 68.0453 18.6097 67.96 18.439 67.96C17.671 68.0453 17.0737 68.216 16.647 68.472C16.3057 68.728 15.6657 68.984 14.727 69.24C14.3857 69.3253 14.087 69.4107 13.831 69.496C13.575 69.496 13.3617 69.496 13.191 69.496C12.5083 69.496 12.167 69.2827 12.167 68.856C12.167 68.6853 12.2523 68.472 12.423 68.216C12.679 67.8747 12.8497 67.6613 12.935 67.576C13.959 66.4667 15.111 65.528 16.391 64.76C17.671 63.992 19.0363 63.608 20.487 63.608C21.6817 63.608 22.9617 63.9493 24.327 64.632L25.863 63.352C26.7163 62.6693 27.5697 61.9867 28.423 61.304C29.2763 60.536 30.1297 59.768 30.983 59C30.6417 59 30.599 58.9573 30.855 58.872C31.111 58.7013 31.0683 58.616 30.727 58.616H30.471C29.3617 58.616 28.807 58.7867 28.807 59.128C28.807 59.2987 28.3803 59.512 27.527 59.768C26.6737 59.9387 26.2043 60.024 26.119 60.024L22.023 60.92C21.4257 60.92 21.127 60.4933 21.127 59.64C21.0417 59.2133 21.1697 58.8293 21.511 58.488C21.5963 58.4027 21.6817 58.36 21.767 58.36L24.199 57.976C24.711 57.8907 25.3937 57.8053 26.247 57.72C27.1003 57.6347 27.8257 57.5067 28.423 57.336L32.135 56.952H32.903C33.8417 55.928 34.7377 55.032 35.591 54.264C35.7617 54.1787 35.9323 54.2213 36.103 54.392C36.2737 54.4773 36.4017 54.4773 36.487 54.392C36.6577 54.2213 36.743 54.008 36.743 53.752C36.8283 53.496 36.999 53.2827 37.255 53.112C38.1083 52.4293 38.919 51.6187 39.687 50.68C40.5403 49.7413 41.4363 48.8453 42.375 47.992H41.991C41.223 47.992 40.5403 47.7787 39.943 47.352H39.559C39.047 47.352 38.407 47.2667 37.639 47.096C36.9563 46.84 36.6577 46.5413 36.743 46.2L36.487 45.816C36.4017 45.816 36.2737 45.8587 36.103 45.944C36.0177 45.944 35.8897 45.944 35.719 45.944C35.3777 45.944 34.6097 45.7733 33.415 45.432C32.2203 45.0907 31.0257 44.7493 29.831 44.408C29.319 44.2373 28.807 44.152 28.295 44.152C27.8683 44.152 27.5697 44.024 27.399 43.768H27.143C26.0337 44.3653 25.0523 45.0907 24.199 45.944C23.3457 46.712 22.8337 47.5653 22.663 48.504C22.5777 48.8453 22.3217 49.016 21.895 49.016C21.5537 48.9307 21.4257 48.7173 21.511 48.376C21.6817 47.1813 22.2363 46.1147 23.175 45.176C24.199 44.2373 25.2657 43.4693 26.375 42.872C26.4603 42.7867 26.503 42.744 26.503 42.744C26.503 42.6587 26.503 42.616 26.503 42.616C26.8443 42.104 27.4417 41.592 28.295 41.08C29.1483 40.4827 29.8737 40.0987 30.471 39.928C30.5563 39.7573 30.6843 39.6293 30.855 39.544C31.111 39.4587 31.2817 39.3733 31.367 39.288C31.623 39.1173 31.9217 39.032 32.263 39.032C32.4337 39.032 32.6043 39.0747 32.775 39.16C32.9457 39.16 33.2017 39.2027 33.543 39.288C33.8843 39.1173 34.183 39.032 34.439 39.032C34.7803 38.9467 35.079 38.904 35.335 38.904C35.5057 38.904 35.9323 38.9893 36.615 39.16C37.2977 39.2453 37.8523 39.6293 38.279 40.312C40.4123 43.2133 43.015 44.92 46.087 45.432C46.4283 45.5173 46.983 45.5173 47.751 45.432C48.6043 45.3467 49.2017 45.3467 49.543 45.432C51.079 44.5787 52.359 43.64 53.383 42.616C54.2363 41.9333 54.7057 41.2507 54.791 40.568C54.791 40.3973 54.919 40.312 55.175 40.312C55.431 40.2267 55.559 40.1413 55.559 40.056C55.815 39.7147 56.071 39.544 56.327 39.544C57.0097 39.544 57.1803 39.8427 56.839 40.44L55.815 41.72C55.815 41.8907 55.687 42.0613 55.431 42.232C53.895 43.5973 52.4443 45.1333 51.079 46.84C49.799 48.4613 48.3057 49.8267 46.599 50.936C46.5137 51.0213 46.343 51.064 46.087 51.064C45.6603 51.064 45.1483 50.9787 44.551 50.808C44.039 50.552 43.6123 50.5093 43.271 50.68C41.991 51.6187 40.711 52.6 39.431 53.624C38.151 54.5627 36.8283 55.5867 35.463 56.696L37.383 56.44C37.639 56.3547 37.7243 56.3547 37.639 56.44C37.639 56.5253 37.767 56.568 38.023 56.568C38.4497 56.4827 38.7057 56.44 38.791 56.44C38.9617 56.3547 39.2177 56.312 39.559 56.312C41.095 56.1413 42.4603 56.056 43.655 56.056C43.9963 56.056 44.3803 56.056 44.807 56.056C45.2337 56.056 45.575 56.0987 45.831 56.184C46.0017 56.184 46.0443 56.2267 45.959 56.312C45.959 56.312 46.0017 56.3547 46.087 56.44C46.2577 56.44 46.3857 56.44 46.471 56.44C46.5563 56.3547 46.6843 56.2693 46.855 56.184C46.9403 56.184 47.0683 56.184 47.239 56.184C47.4097 56.184 47.5377 56.2267 47.623 56.312C48.2203 56.312 48.6043 56.3547 48.775 56.44C49.2017 56.5253 49.415 56.696 49.415 56.952C49.5003 57.208 49.3297 57.2933 48.903 57.208C48.8177 57.208 48.6897 57.208 48.519 57.208C48.4337 57.1227 48.3057 57.08 48.135 57.08H47.239C46.5563 57.08 45.7457 57.08 44.807 57.08C43.9537 57.08 43.143 57.1227 42.375 57.208C42.2897 57.208 42.247 57.1653 42.247 57.08C42.247 56.9093 42.1617 56.824 41.991 56.824C41.991 56.824 41.9057 56.9093 41.735 57.08C41.5643 57.1653 41.4363 57.208 41.351 57.208C41.2657 57.208 41.1803 57.2507 41.095 57.336C41.0097 57.336 40.8817 57.336 40.711 57.336L32.903 58.744L32.775 58.872C31.751 59.896 30.6843 60.8773 29.575 61.816C28.4657 62.7547 27.3137 63.6933 26.119 64.632C26.0337 64.7173 25.9483 64.8453 25.863 65.016C25.7777 65.1013 25.6497 65.1867 25.479 65.272C27.015 66.296 28.423 67.5333 29.703 68.984C31.0683 70.4347 32.2203 71.6293 33.159 72.568C35.0363 74.36 37.4683 75.5547 40.455 76.152C43.4417 76.7493 46.0017 76.92 48.135 76.664C48.903 76.4933 49.543 76.152 50.055 75.64C50.6523 75.128 51.1217 74.5733 51.463 73.976V73.848C51.463 73.7627 51.5483 73.6347 51.719 73.464C51.975 73.2933 52.1457 73.2933 52.231 73.464C52.3163 73.464 52.231 73.6347 51.975 73.976C51.8043 74.3173 51.719 74.488 51.719 74.488C51.8897 74.5733 51.975 74.744 51.975 75C51.975 75.3413 52.0177 75.512 52.103 75.512C52.2737 75.512 52.4443 75.384 52.615 75.128C52.871 74.872 52.999 74.7013 52.999 74.616C53.255 74.1893 53.4257 73.7627 53.511 73.336C53.6817 72.824 53.8097 72.3973 53.895 72.056C54.151 71.032 54.279 69.88 54.279 68.6C54.279 67.32 54.0657 66.1253 53.639 65.016C53.2123 63.8213 52.4017 63.1387 51.207 62.968C51.0363 62.968 50.951 62.8827 50.951 62.712C50.951 62.5413 51.079 62.328 51.335 62.072C51.591 61.816 51.847 61.7307 52.103 61.816C53.5537 61.9867 54.4923 62.712 54.919 63.992C55.431 65.1867 55.687 66.5093 55.687 67.96C55.687 69.24 55.559 70.4773 55.303 71.672C55.2177 72.184 55.047 72.7813 54.791 73.464C54.6203 74.0613 54.3217 74.6587 53.895 75.256C53.383 77.6453 52.231 79.352 50.439 80.376C48.7323 81.4 46.855 81.912 44.807 81.912C43.015 81.912 41.2657 81.5707 39.559 80.888C37.8523 80.2053 36.4443 79.2667 35.335 78.072C34.311 76.8773 33.287 75.5973 32.263 74.232C31.239 72.8667 30.1297 71.6293 28.935 70.52C28.3377 69.9227 27.6977 69.368 27.015 68.856C26.3323 68.2587 25.5217 67.96 24.583 67.96C24.071 67.96 23.687 68.0027 23.431 68.088C22.663 68.344 22.023 68.472 21.511 68.472L18.567 70.776C17.799 71.3733 17.0737 72.056 16.391 72.824C15.7083 73.592 15.0257 74.3173 14.343 75C14.2577 75.0853 14.087 75.2987 13.831 75.64C13.6603 76.0667 13.5323 76.28 13.447 76.28C12.679 77.304 12.167 78.2 11.911 78.968C11.911 79.0533 11.9963 79.3093 12.167 79.736C12.3377 80.248 12.3803 80.632 12.295 80.888L11.399 82.296C11.3137 82.3813 11.1857 82.424 11.015 82.424ZM44.212 111.352C42.932 111.352 41.8227 111.224 40.884 110.968C40.2867 110.797 39.6893 110.584 39.092 110.328C38.4947 110.072 37.8547 109.773 37.172 109.432L36.916 109.304C36.5747 109.133 36.1907 108.877 35.764 108.536C35.3373 108.28 34.9107 108.067 34.484 107.896C34.1427 107.811 33.6733 107.555 33.076 107.128C32.6493 106.787 32.3933 106.445 32.308 106.104C32.1373 105.763 32.18 105.549 32.436 105.464C32.5213 105.464 32.6493 105.507 32.82 105.592C32.9907 105.763 33.1613 105.891 33.332 105.976C33.5027 106.061 33.716 106.189 33.972 106.36C34.1427 106.531 34.3133 106.659 34.484 106.744C34.9107 106.915 35.2947 107.043 35.636 107.128C35.892 107.299 36.1907 107.469 36.532 107.64C37.3 107.981 37.8547 108.195 38.196 108.28C38.5373 108.365 39.0493 108.451 39.732 108.536L41.396 108.664C45.9187 109.005 49.716 108.152 52.788 106.104C55.7747 104.056 58.292 101.88 60.34 99.576C60.596 98.8933 60.852 98.2533 61.108 97.656C61.4493 97.144 61.7907 96.7173 62.132 96.376C62.2173 96.2907 62.3027 96.3333 62.388 96.504C62.5587 96.76 62.6867 96.8453 62.772 96.76C62.9427 96.504 63.028 96.0773 63.028 95.48C63.1133 94.968 63.284 94.584 63.54 94.328C63.6253 94.2427 63.7107 94.328 63.796 94.584C63.9667 94.84 64.0947 94.9253 64.18 94.84C64.3507 94.6693 64.436 94.328 64.436 93.816C64.5213 93.304 64.6067 93.0053 64.692 92.92C65.5453 91.7253 66.3133 90.616 66.996 89.592C67.6787 88.568 68.4467 87.3307 69.3 85.88C70.068 84.6853 70.964 83.1493 71.988 81.272C73.0973 79.48 74.0787 77.816 74.932 76.28C75.7853 74.9147 76.4253 73.464 76.852 71.928L77.236 70.52C77.6627 68.8987 78.516 66.68 79.796 63.864C81.1613 60.9627 82.74 57.848 84.532 54.52C86.4093 51.1067 88.2867 47.864 90.164 44.792C90.5907 44.28 90.932 43.8533 91.188 43.512C91.444 43.1707 91.828 42.744 92.34 42.232C92.5107 42.1467 92.852 41.7627 93.364 41.08C93.876 40.3973 94.388 39.7147 94.9 39.032C95.4973 38.264 95.8387 37.8373 95.924 37.752C98.3987 35.704 101.129 34.0827 104.116 32.888C107.188 31.608 109.577 30.968 111.284 30.968C111.967 30.968 112.436 30.968 112.692 30.968C113.033 30.8827 113.46 30.8827 113.972 30.968L114.868 31.096C115.209 31.1813 115.508 31.3093 115.764 31.48C116.105 31.5653 116.447 31.6507 116.788 31.736C116.959 31.8213 117.172 31.9493 117.428 32.12C117.684 32.2907 117.897 32.4187 118.068 32.504C118.409 32.76 118.58 33.0587 118.58 33.4C118.58 33.656 118.495 33.8267 118.324 33.912C118.239 33.9973 118.111 33.9973 117.94 33.912C117.855 33.7413 117.727 33.656 117.556 33.656C117.385 33.656 117.215 33.6133 117.044 33.528C116.873 33.4427 116.703 33.3573 116.532 33.272C116.191 33.272 115.892 33.2293 115.636 33.144C115.38 33.0587 115.124 32.9733 114.868 32.888C114.527 32.8027 114.228 32.76 113.972 32.76C113.716 32.76 113.503 32.76 113.332 32.76C112.991 32.76 112.649 32.8027 112.308 32.888C112.223 32.888 111.967 32.9307 111.54 33.016C111.199 33.016 110.943 33.0587 110.772 33.144C106.847 34.0827 103.647 35.8747 101.172 38.52C98.6973 41.1653 96.4787 43.8533 94.516 46.584C94.1747 47.0107 93.7053 47.5653 93.108 48.248C92.596 48.8453 92.2547 49.2293 92.084 49.4C91.9987 49.5707 91.6147 50.168 90.932 51.192C90.2493 52.1307 89.5667 53.112 88.884 54.136C88.2867 55.0747 87.9453 55.5867 87.86 55.672C87.7747 55.7573 87.604 55.8 87.348 55.8C87.1773 55.8 87.0493 55.8427 86.964 55.928L83.892 62.072L82.612 64.504L80.948 67.832C80.0947 69.4533 79.3267 71.1173 78.644 72.824C77.9613 74.4453 77.4067 76.024 76.98 77.56C76.724 78.1573 76.596 78.84 76.596 79.608C76.596 80.376 76.3827 80.8453 75.956 81.016C75.7 81.1013 75.4867 80.9733 75.316 80.632C75.1453 80.2907 75.06 80.5893 75.06 81.528C75.2307 81.6133 75.2307 81.784 75.06 82.04C74.9747 82.296 74.932 82.5093 74.932 82.68C75.0173 82.8507 75.06 83.1067 75.06 83.448C75.06 83.8747 74.8893 84.2587 74.548 84.6C74.292 84.9413 74.0787 85.3253 73.908 85.752C73.7373 86.0933 73.524 86.1787 73.268 86.008C73.012 85.9227 72.7987 85.88 72.628 85.88L72.5 86.136C72.5 86.392 72.628 86.9893 72.884 87.928C72.884 88.44 72.628 88.696 72.116 88.696H71.732C71.6467 90.488 71.3053 91.5547 70.708 91.896L69.812 92.536L69.556 93.048C69.044 94.072 68.66 94.5413 68.404 94.456L68.02 95.48C67.9347 95.736 67.7213 95.9493 67.38 96.12C67.124 96.2907 66.9107 96.504 66.74 96.76C66.74 96.8453 66.6973 96.888 66.612 96.888C66.612 96.888 66.612 96.9307 66.612 97.016C66.612 98.04 66.1427 99.064 65.204 100.088C64.3507 101.112 63.4547 102.008 62.516 102.776C62.3453 103.117 62.132 103.459 61.876 103.8C61.62 104.141 61.3213 104.44 60.98 104.696C60.5533 105.123 60.0413 105.379 59.444 105.464C58.932 105.549 58.42 105.805 57.908 106.232C57.7373 106.317 57.652 106.531 57.652 106.872C57.7373 107.299 57.6947 107.555 57.524 107.64C55.6467 108.835 53.4707 109.731 50.996 110.328C48.5213 111.011 46.26 111.352 44.212 111.352ZM65.588 74.872C64.4787 74.872 63.54 74.232 62.772 72.952C62.004 71.5867 61.7907 70.5627 62.132 69.88C62.2173 69.7093 62.3027 69.496 62.388 69.24C62.5587 68.8987 62.6867 68.6853 62.772 68.6C62.9427 68.4293 63.028 68.3867 63.028 68.472C63.1133 68.472 63.1987 68.4293 63.284 68.344C63.3693 68.1733 63.3267 68.0453 63.156 67.96C63.0707 67.7893 63.0707 67.6613 63.156 67.576L64.692 61.816C64.692 61.7307 64.7347 61.6453 64.82 61.56C64.9053 61.4747 64.948 61.3893 64.948 61.304L65.204 59C65.204 58.9147 65.2893 58.9147 65.46 59C65.6307 59 65.7587 58.9573 65.844 58.872C66.0147 58.4453 65.972 58.232 65.716 58.232C65.46 58.232 65.332 58.1893 65.332 58.104C65.4173 57.4213 65.5453 56.952 65.716 56.696C65.8867 56.44 66.0147 56.0133 66.1 55.416L66.484 53.24C66.484 53.3253 66.5267 53.6667 66.612 54.264C66.6973 54.776 66.9107 55.032 67.252 55.032C67.6787 55.032 67.8067 54.9467 67.636 54.776C67.4653 54.6053 67.3373 54.392 67.252 54.136C67.1667 53.7093 67.252 53.368 67.508 53.112C67.5933 53.0267 67.764 53.1973 68.02 53.624C68.276 53.9653 68.404 54.136 68.404 54.136C68.4893 53.9653 68.532 53.752 68.532 53.496C68.532 53.24 68.4467 53.0693 68.276 52.984C67.9347 52.728 67.5507 52.5573 67.124 52.472C66.7827 52.3013 66.612 52.1307 66.612 51.96C66.612 51.704 66.6547 51.448 66.74 51.192C66.74 51.1067 66.7827 51.0213 66.868 50.936C66.9533 50.8507 66.996 50.7653 66.996 50.68C66.996 50.5093 66.9107 50.424 66.74 50.424C66.6547 50.424 66.612 50.3813 66.612 50.296V49.016C66.612 48.76 66.612 48.504 66.612 48.248C66.612 47.9067 66.5267 47.5653 66.356 47.224C66.1 46.6267 65.716 46.1147 65.204 45.688C64.692 45.2613 64.052 45.048 63.284 45.048H63.156L62.9 45.304H62.644C62.0467 45.7307 61.364 46.1573 60.596 46.584C59.9133 46.9253 59.316 47.1813 58.804 47.352L58.548 47.48C58.4627 47.5653 58.3347 47.608 58.164 47.608C57.8227 47.608 57.5667 47.4373 57.396 47.096C57.3107 46.7547 57.4387 46.5413 57.78 46.456C58.4627 46.0293 59.188 45.688 59.956 45.432C60.724 45.176 61.4067 44.792 62.004 44.28C62.1747 43.8533 62.6013 43.512 63.284 43.256C63.4547 43.0853 63.5827 43.0427 63.668 43.128C63.7533 43.2133 63.8387 43.256 63.924 43.256C64.3507 43.256 64.6067 43.128 64.692 42.872C64.8627 42.5307 64.9907 42.4453 65.076 42.616H66.356C68.2333 42.616 69.684 43.384 70.708 44.92C71.732 46.3707 72.2013 48.3333 72.116 50.808C72.116 50.8933 71.988 51.0213 71.732 51.192C71.5613 51.2773 71.476 51.4053 71.476 51.576C71.476 51.6613 71.5613 51.704 71.732 51.704C71.988 51.6187 72.116 51.6613 72.116 51.832V52.344C72.116 53.112 72.0733 53.5387 71.988 53.624C71.8173 55.5013 71.3907 57.464 70.708 59.512C70.1107 61.4747 69.4707 63.3947 68.788 65.272C68.532 65.272 68.3613 65.4 68.276 65.656C68.1907 65.912 68.0627 66.04 67.892 66.04C67.636 66.04 67.38 65.9547 67.124 65.784C66.9533 65.528 66.868 65.528 66.868 65.784C66.868 66.1253 67.0387 66.3813 67.38 66.552C67.7213 66.6373 67.9347 66.7227 68.02 66.808C68.1053 66.8933 68.276 66.936 68.532 66.936C68.788 66.936 69.044 66.8507 69.3 66.68C69.556 66.5093 69.812 66.3387 70.068 66.168C70.4947 65.8267 71.0493 65.3573 71.732 64.76C72.5 64.0773 73.1827 63.48 73.78 62.968C74.3773 62.3707 74.676 62.072 74.676 62.072C74.5053 61.9013 74.6333 61.7307 75.06 61.56L75.7 60.792C75.7853 60.3653 76.0413 59.896 76.468 59.384C76.8947 58.872 77.2787 58.5733 77.62 58.488L77.876 57.976C77.9613 57.976 78.0467 58.0187 78.132 58.104C78.2173 58.104 78.3027 58.0613 78.388 57.976C78.4733 57.976 78.4733 57.8907 78.388 57.72C78.388 57.5493 78.4307 57.464 78.516 57.464L79.156 56.568C79.3267 56.056 79.4973 55.7573 79.668 55.672C79.5827 55.416 79.668 55.2453 79.924 55.16C80.0947 55.16 80.2653 55.2027 80.436 55.288C80.692 55.288 80.82 55.1173 80.82 54.776C80.82 54.6053 80.8627 54.392 80.948 54.136C81.0333 53.7947 81.2467 53.6667 81.588 53.752L81.716 53.496C81.716 53.4107 81.8867 53.2827 82.228 53.112C82.5693 52.856 82.7827 52.6853 82.868 52.6L83.508 51.704C83.764 51.2773 84.02 51.064 84.276 51.064C84.532 50.9787 84.7027 50.936 84.788 50.936C84.8733 50.936 84.916 51.0213 84.916 51.192C84.916 51.7893 84.6173 52.3867 84.02 52.984L82.996 54.136C82.9107 54.2213 82.8253 54.264 82.74 54.264C82.6547 54.264 82.5693 54.3493 82.484 54.52C82.3987 54.6053 82.3133 54.7333 82.228 54.904C82.1427 55.0747 82.0573 55.2453 81.972 55.416L80.948 56.568L74.036 64.76C73.268 65.6133 72.756 66.168 72.5 66.424C72.3293 66.68 72.0733 67.064 71.732 67.576C71.6467 67.6613 71.5187 67.6613 71.348 67.576C71.1773 67.4907 71.0067 67.5333 70.836 67.704L70.708 68.472L70.068 69.112C69.9827 69.1973 70.0253 69.24 70.196 69.24C70.452 69.24 70.5373 69.2827 70.452 69.368L68.66 72.44C67.7213 74.0613 66.6973 74.872 65.588 74.872ZM113.352 35.064C113.181 35.064 112.968 34.9787 112.712 34.808C112.541 34.552 112.285 34.3387 111.944 34.168C111.773 34.0827 111.56 33.9973 111.304 33.912C111.133 33.7413 111.048 33.4853 111.048 33.144C110.963 33.0587 110.792 33.016 110.536 33.016C110.109 33.016 109.896 32.7173 109.896 32.12C109.896 31.4373 110.237 30.968 110.92 30.712L111.56 30.2V30.328L112.072 29.688H112.328C112.84 29.688 113.181 29.432 113.352 28.92C113.608 28.408 114.12 28.0667 114.888 27.896C115.4 27.7253 115.827 27.768 116.168 28.024C116.509 28.28 116.936 28.408 117.448 28.408C117.96 28.408 118.515 28.2373 119.112 27.896L121.032 27.512C121.288 27.512 121.416 27.5973 121.416 27.768C121.416 27.9387 121.16 28.152 120.648 28.408C120.221 28.664 119.923 28.8773 119.752 29.048L119.624 29.176L119.496 29.432L118.984 30.072C118.301 30.9253 117.405 31.992 116.296 33.272C115.187 34.4667 114.205 35.064 113.352 35.064ZM63.816 111.352C62.536 111.352 61.4267 111.224 60.488 110.968C59.8907 110.797 59.2933 110.584 58.696 110.328C58.0987 110.072 57.4587 109.773 56.776 109.432L56.52 109.304C56.1787 109.133 55.7947 108.877 55.368 108.536C54.9413 108.28 54.5147 108.067 54.088 107.896C53.7467 107.811 53.2773 107.555 52.68 107.128C52.2533 106.787 51.9973 106.445 51.912 106.104C51.7413 105.763 51.784 105.549 52.04 105.464C52.1253 105.464 52.2533 105.507 52.424 105.592C52.5947 105.763 52.7653 105.891 52.936 105.976C53.1067 106.061 53.32 106.189 53.576 106.36C53.7467 106.531 53.9173 106.659 54.088 106.744C54.5147 106.915 54.8987 107.043 55.24 107.128C55.496 107.299 55.7947 107.469 56.136 107.64C56.904 107.981 57.4587 108.195 57.8 108.28C58.1413 108.365 58.6533 108.451 59.336 108.536L61 108.664C63.9867 108.835 66.5467 108.451 68.68 107.512C70.8133 106.573 72.7333 105.336 74.44 103.8C76.0613 102.349 77.5547 100.856 78.92 99.32C79.176 98.6373 79.4747 97.9973 79.816 97.4C80.072 96.8027 80.3707 96.376 80.712 96.12C80.7973 96.0347 80.8827 96.0773 80.968 96.248C81.0533 96.504 81.1387 96.5893 81.224 96.504C81.3947 96.248 81.5227 95.8213 81.608 95.224C81.6933 94.712 81.8213 94.328 81.992 94.072C82.1627 93.9013 82.3333 93.944 82.504 94.2C82.5893 94.456 82.6747 94.5413 82.76 94.456C82.9307 94.2853 83.016 93.944 83.016 93.432C83.016 93.0053 83.0587 92.7067 83.144 92.536C84.0827 91.3413 84.8933 90.232 85.576 89.208C86.1733 88.184 86.8987 86.9893 87.752 85.624C88.52 84.4293 89.6293 82.936 91.08 81.144C92.5307 79.4373 93.6827 77.816 94.536 76.28C95.2187 75.1707 95.688 74.1467 95.944 73.208C96.2853 72.184 96.7973 71.032 97.48 69.752C98.1627 68.6427 98.5467 67.7467 98.632 67.064C98.8027 66.3813 99.0587 65.6987 99.4 65.016C99.8267 64.248 100.211 63.224 100.552 61.944C100.979 60.664 101.235 59.4267 101.32 58.232C101.405 57.5493 101.448 56.9093 101.448 56.312C101.448 55.7147 101.576 54.9893 101.832 54.136C101.917 53.9653 101.96 53.752 101.96 53.496C102.045 53.24 102.131 52.9413 102.216 52.6C102.472 52.088 102.728 51.832 102.984 51.832C103.155 51.832 103.283 52.0453 103.368 52.472C103.539 52.8133 103.667 53.0267 103.752 53.112C103.923 53.1973 104.051 53.0693 104.136 52.728C104.307 52.3013 104.392 52.0453 104.392 51.96C104.392 51.7893 104.477 51.6613 104.648 51.576C104.904 51.4053 105.075 51.192 105.16 50.936V50.808C105.16 50.552 105.117 50.3387 105.032 50.168C104.947 49.912 104.947 49.7413 105.032 49.656C105.117 49.5707 105.16 49.4853 105.16 49.4C105.16 48.888 104.989 48.2053 104.648 47.352C103.795 46.4987 103.581 45.6453 104.008 44.792C104.179 44.6213 104.307 44.536 104.392 44.536C104.477 44.536 104.52 44.536 104.52 44.536V44.28C104.52 43.9387 104.648 43.7253 104.904 43.64C105.245 43.5547 105.459 43.4267 105.544 43.256C105.715 42.0613 106.696 41.1653 108.488 40.568C110.365 39.9707 112.029 39.672 113.48 39.672C114.931 39.672 115.656 39.8853 115.656 40.312C115.656 40.568 115.4 40.8667 114.888 41.208C114.717 41.3787 114.291 41.7627 113.608 42.36C113.011 42.9573 112.456 43.6827 111.944 44.536L111.048 46.072L110.152 47.224L107.848 51.448C107.507 52.3867 107.165 53.3253 106.824 54.264C106.568 55.2027 106.355 55.7573 106.184 55.928C106.184 55.928 105.885 56.6107 105.288 57.976C104.776 59.256 104.179 60.6213 103.496 62.072C102.813 63.5227 102.301 64.504 101.96 65.016C100.936 67.1493 99.912 69.2827 98.888 71.416C97.9493 73.5493 97.1813 75.5973 96.584 77.56C96.328 78.1573 96.2 78.84 96.2 79.608C96.2 80.376 95.9867 80.8453 95.56 81.016C95.304 81.1013 95.0907 80.9733 94.92 80.632C94.7493 80.2907 94.664 80.5893 94.664 81.528C94.8347 81.6133 94.8347 81.784 94.664 82.04C94.5787 82.296 94.536 82.5093 94.536 82.68C94.6213 82.8507 94.664 83.1067 94.664 83.448C94.664 83.8747 94.4933 84.2587 94.152 84.6C93.896 84.9413 93.6827 85.3253 93.512 85.752C93.4267 86.008 93.256 86.136 93 86.136C92.9147 86.136 92.7867 86.0933 92.616 86.008C92.4453 85.9227 92.3173 85.88 92.232 85.88C92.1467 85.88 92.104 85.9653 92.104 86.136C92.104 86.3067 92.232 86.904 92.488 87.928C92.488 88.44 92.232 88.696 91.72 88.696H91.336C91.2507 89.6347 91.1227 90.3173 90.952 90.744C90.7813 91.256 90.568 91.64 90.312 91.896L89.416 92.536C88.5627 93.2187 87.9653 94.2 87.624 95.48C87.5387 95.736 87.368 95.9493 87.112 96.12C86.7707 96.2907 86.5147 96.504 86.344 96.76C86.344 96.8453 86.344 96.888 86.344 96.888C86.2587 96.888 86.216 96.9307 86.216 97.016C86.216 98.04 85.7893 99.064 84.936 100.088C83.9973 101.112 83.0587 102.008 82.12 102.776C81.9493 103.117 81.736 103.459 81.48 103.8C81.224 104.141 80.9253 104.44 80.584 104.696C80.1573 105.123 79.688 105.379 79.176 105.464C78.5787 105.549 78.024 105.805 77.512 106.232C77.3413 106.317 77.2987 106.531 77.384 106.872C77.384 107.299 77.2987 107.555 77.128 107.64C75.2507 108.835 73.0747 109.731 70.6 110.328C68.1253 111.011 65.864 111.352 63.816 111.352Z" fill="#6366F1"/>
</g>
<defs>
<clipPath id="clip0_2_15">
<path d="M0 16C0 7.16344 7.16344 0 16 0H112C120.837 0 128 7.16344 128 16V112C128 120.837 120.837 128 112 128H16C7.16344 128 0 120.837 0 112V16Z" fill="white"/>
</clipPath>
</defs>
</svg>
